# xmcd
# 
# Track frame offsets:
#     150
#     19220
#     39988
#     58270
#     74863
#     93413
#     113525
#     129820
#     154195
#     169488
# 
# Disc length: 2509
# 
# Revision: 1
# Processed by: cddbd v1.5.2PL0 Copyright (c) Steve Scherf et al.
# Submitted via: fre:ac v1.0.31
# 
DISCID=8709cb0a
DTITLE=Various Artist - 羅時豐V.S.五個女唱將 3
DYEAR=1995
DGENRE=POP
TTITLE0=羅時豐;王瑞霞 - 夢中情 (feat. 王瑞霞)
TTITLE1=羅時豐;江念庭 - 冬天過了是春天 (feat. 江念庭)
TTITLE2=羅時豐;金佩姍 - 愛情的酒攏抹退 (feat. 金佩姍)
TTITLE3=羅時豐;林姍 - 愛難忘情難忘 (feat. 林姍)
TTITLE4=羅時豐;張瀛仁 - 天涯總有相會時 (feat. 張瀛仁)
TTITLE5=羅時豐;王瑞霞 - 情雨亂亂飛 (feat. 王瑞霞)
TTITLE6=羅時豐;張瀛仁 - 面紅紅 (feat. 張瀛仁)
TTITLE7=羅時豐;江念庭 - 心事放乎伊飛 (feat. 江念庭)
TTITLE8=羅時豐;林姍 - 醉歸暝 (feat. 林姍)
TTITLE9=羅時豐;金佩姍 - 阮不是故意 (feat. 金佩姍)
EXTD=
EXTT0=
EXTT1=
EXTT2=
EXTT3=
EXTT4=
EXTT5=
EXTT6=
EXTT7=
EXTT8=
EXTT9=
PLAYORDER=
